<svg aria-hidden="true" style="position: absolute; width: 0; height: 0; overflow: hidden;" version="1.1" xmlns="http://www.w3.org/2000/svg" xmlns:xlink="http://www.w3.org/1999/xlink">
<defs>
<symbol id="icon-btnUpArrow" viewBox="0 0 18 32">
<path fill="#fff" style="fill: var(--color1, #fff)" d="M8.635 0.195l8.385 14.948h-6.927v16.771h-2.917v-16.771h-6.927l8.385-14.948z"></path>
</symbol>
<symbol id="icon-langIcon" viewBox="0 0 36 32">
<path fill="#fff" style="fill: var(--color1, #fff)" d="M17.778 32c4.715 0 9.237-1.686 12.571-4.686s5.207-7.070 5.207-11.314-1.873-8.313-5.207-11.314c-3.334-3.001-7.856-4.686-12.571-4.686s-9.237 1.686-12.571 4.686c-3.334 3.001-5.207 7.070-5.207 11.314s1.873 8.313 5.207 11.314c3.334 3.001 7.856 4.686 12.571 4.686v0zM17.778 2c1.46 0 3.127 1.18 4.493 3.816 0.482 0.932 0.902 2.004 1.242 3.184h-11.471c0.34-1.18 0.76-2.252 1.244-3.184 1.362-2.636 3.029-3.816 4.491-3.816zM11.271 4.97c-0.656 1.294-1.165 2.644-1.518 4.030h-5.451c1.876-2.918 4.856-5.132 8.396-6.236-0.536 0.66-1.013 1.408-1.427 2.206zM9.316 11c-0.288 1.654-0.43 3.326-0.427 5 0 1.74 0.149 3.424 0.429 5h-6.073c-0.678-1.596-1.024-3.291-1.022-5 0-1.76 0.362-3.448 1.022-5h6.071zM9.753 23c0.391 1.486 0.904 2.844 1.518 4.030 0.413 0.798 0.891 1.546 1.427 2.206-3.54-1.104-6.519-3.318-8.396-6.236h5.451zM12.042 23h11.471c-0.306 1.093-0.723 2.159-1.244 3.184-1.362 2.636-3.029 3.816-4.491 3.816-1.46 0-3.127-1.18-4.493-3.816-0.52-1.025-0.935-2.091-1.24-3.184h-0.002zM23.987 21h-12.418c-0.309-1.652-0.462-3.325-0.458-5 0-1.766 0.162-3.45 0.458-5h12.418c0.296 1.55 0.458 3.234 0.458 5s-0.162 3.45-0.458 5zM25.802 23h5.451c-1.876 2.918-4.856 5.132-8.396 6.236 0.536-0.66 1.013-1.408 1.427-2.206 0.613-1.186 1.127-2.544 1.518-4.030v0zM32.313 21h-6.076c0.28-1.576 0.429-3.26 0.429-5s-0.149-3.424-0.429-5h6.073c0.66 1.552 1.022 3.24 1.022 5s-0.362 3.448-1.022 5h0.002zM22.858 2.764c3.54 1.104 6.52 3.318 8.396 6.236h-5.453c-0.353-1.386-0.862-2.736-1.518-4.030-0.396-0.775-0.873-1.514-1.427-2.206h0.002z"></path>
</symbol>
<symbol id="icon-lineBtnArrow" viewBox="0 0 37 32">
<path d="M18.842 30.509l18.080-30.395h-36.16l18.080 30.395z"></path>
</symbol>
<symbol id="icon-star" viewBox="0 0 32 32">
<path d="M0.876 11.781l12.333 0.333 3.667-11.667 3.667 11.667 12.333-0.333-10 7.667 3.667 11.667-9.667-7.333-9.667 7.333 3.667-11.667-10-7.667z"></path>
</symbol>
</defs>
</svg>
