<svg aria-hidden="true" style="position: absolute; width: 0; height: 0; overflow: hidden;" version="1.1" xmlns="http://www.w3.org/2000/svg" xmlns:xlink="http://www.w3.org/1999/xlink">
<defs>
<symbol id="icon-facebook" viewBox="0 0 32 32">
<path d="M32 15.841c0-8.652-7.164-15.666-16-15.666s-16 7.014-16 15.666c0 7.82 5.851 14.3 13.5 15.475v-10.947h-4.063v-4.53h4.063v-3.449c0-3.926 2.389-6.095 6.044-6.095 1.749 0 3.581 0.307 3.581 0.307v3.855h-2.019c-1.988 0-2.608 1.208-2.608 2.447v2.937h4.437l-0.709 4.53h-3.728v10.947c7.651-1.176 13.501-7.658 13.501-15.477z"></path>
</symbol>
<symbol id="icon-instagram" viewBox="0 0 32 32">
<path d="M16 0.176c-4.347 0-4.889 0.020-6.596 0.094-1.704 0.078-2.864 0.341-3.884 0.728-1.052 0.399-1.945 0.936-2.835 1.807s-1.439 1.744-1.845 2.776c-0.396 0.999-0.665 2.135-0.744 3.803-0.080 1.671-0.096 2.202-0.096 6.458s0.020 4.787 0.096 6.458c0.080 1.667 0.348 2.804 0.744 3.803 0.408 1.029 0.956 1.905 1.845 2.776 0.889 0.869 1.781 1.409 2.835 1.807 1.021 0.387 2.181 0.651 3.884 0.729 1.707 0.078 2.249 0.094 6.596 0.094s4.889-0.020 6.596-0.094c1.703-0.078 2.864-0.342 3.884-0.729 1.051-0.399 1.945-0.937 2.835-1.807 0.888-0.871 1.439-1.743 1.845-2.776 0.395-0.999 0.665-2.136 0.744-3.803 0.080-1.671 0.096-2.202 0.096-6.458s-0.020-4.787-0.096-6.458c-0.080-1.667-0.349-2.806-0.744-3.803-0.408-1.030-0.957-1.905-1.845-2.776-0.889-0.871-1.78-1.409-2.835-1.807-1.020-0.388-2.181-0.651-3.884-0.728-1.707-0.078-2.249-0.094-6.596-0.094zM16 2.995c4.271 0 4.78 0.021 6.467 0.093 1.56 0.072 2.407 0.325 2.969 0.542 0.749 0.283 1.28 0.623 1.843 1.17 0.559 0.548 0.905 1.069 1.195 1.803 0.219 0.551 0.48 1.38 0.551 2.907 0.076 1.653 0.093 2.149 0.093 6.332s-0.020 4.68-0.099 6.332c-0.081 1.527-0.341 2.356-0.561 2.907-0.299 0.734-0.639 1.253-1.199 1.804-0.559 0.547-1.099 0.886-1.84 1.17-0.56 0.214-1.42 0.47-2.98 0.539-1.699 0.074-2.199 0.091-6.479 0.091-4.281 0-4.781-0.020-6.479-0.096-1.561-0.080-2.421-0.334-2.981-0.55-0.759-0.292-1.28-0.625-1.839-1.174-0.561-0.547-0.92-1.076-1.2-1.802-0.22-0.548-0.479-1.39-0.56-2.918-0.060-1.645-0.081-2.153-0.081-6.324 0-4.172 0.021-4.681 0.081-6.346 0.081-1.527 0.34-2.368 0.56-2.916 0.28-0.744 0.639-1.253 1.2-1.803 0.559-0.547 1.080-0.899 1.839-1.172 0.56-0.217 1.401-0.471 2.961-0.55 1.7-0.059 2.2-0.078 6.479-0.078l0.060 0.039zM16 7.797c-4.54 0-8.216 3.603-8.216 8.044 0 4.445 3.68 8.044 8.216 8.044 4.54 0 8.216-3.603 8.216-8.044 0-4.445-3.68-8.044-8.216-8.044zM16 21.063c-2.947 0-5.333-2.337-5.333-5.222s2.387-5.222 5.333-5.222c2.947 0 5.333 2.337 5.333 5.222s-2.387 5.222-5.333 5.222zM26.461 7.48c0 1.038-0.861 1.88-1.92 1.88-1.060 0-1.92-0.843-1.92-1.88s0.861-1.879 1.92-1.879c1.057-0.001 1.92 0.842 1.92 1.879z"></path>
</symbol>
<symbol id="icon-youtube" viewBox="0 0 46 32">
<path d="M44.907 5.058c-0.259-0.946-0.77-1.81-1.482-2.505s-1.599-1.196-2.574-1.453c-3.576-0.936-17.919-0.936-17.919-0.936s-14.343 0-17.921 0.936c-0.974 0.258-1.861 0.759-2.572 1.454s-1.222 1.558-1.481 2.504c-0.959 3.491-0.959 10.773-0.959 10.773s0 7.282 0.959 10.773c0.259 0.946 0.77 1.81 1.482 2.505s1.599 1.196 2.574 1.453c3.576 0.936 17.919 0.936 17.919 0.936s14.343 0 17.921-0.936c0.974-0.257 1.862-0.758 2.574-1.453s1.223-1.558 1.482-2.505c0.957-3.491 0.957-10.773 0.957-10.773s0-7.282-0.959-10.773zM18.242 22.442v-13.222l11.988 6.611-11.988 6.611z"></path>
</symbol>
</defs>
</svg>
